<svg width="58" height="24" viewBox="0 0 58 24" fill="none" xmlns="http://www.w3.org/2000/svg">
<path d="M57.9953 12.3454C57.9953 8.26217 56.0174 5.04022 52.2373 5.04022C48.441 5.04022 46.1442 8.26228 46.1442 12.3136C46.1442 17.1145 48.8559 19.5389 52.7476 19.5389C54.6457 19.5389 56.0812 19.1083 57.1658 18.5022V15.3121C56.0813 15.8545 54.8371 16.1895 53.2581 16.1895C51.7109 16.1895 50.3392 15.6471 50.1638 13.765H57.9634C57.9634 13.5575 57.9953 12.7282 57.9953 12.3454ZM50.1159 10.8302C50.1159 9.02781 51.2165 8.27809 52.2214 8.27809C53.1943 8.27809 54.2311 9.02781 54.2311 10.8302H50.1159ZM39.9876 5.04022C38.4244 5.04022 37.4195 5.77391 36.8614 6.28441L36.6539 5.29548H33.1449V23.8932L37.1324 23.048L37.1485 18.5341C37.7227 18.9488 38.5679 19.5389 39.9716 19.5389C42.8267 19.5389 45.4266 17.2421 45.4266 12.1859C45.4106 7.56034 42.7788 5.04022 39.9875 5.04022M39.0304 16.0299C38.0894 16.0299 37.531 15.695 37.1483 15.2803L37.1323 9.36269C37.547 8.90019 38.1212 8.58123 39.0304 8.58123C40.4819 8.58123 41.4867 10.2081 41.4867 12.2975C41.4867 14.4349 40.4978 16.0299 39.0304 16.0299ZM27.658 4.09918L31.6615 3.23787V0L27.658 0.845383V4.09918ZM27.658 5.3114H31.6615V19.2677H27.658V5.3114ZM23.3675 6.49166L23.1123 5.3114H19.667V19.2677H23.6546V9.80938C24.5956 8.58123 26.1907 8.80452 26.6851 8.97993V5.3114C26.1747 5.11996 24.3086 4.76905 23.3675 6.49166ZM15.3924 1.85024L11.5005 2.67959L11.4846 15.4557C11.4846 17.8164 13.2551 19.5548 15.6158 19.5548C16.9236 19.5548 17.8806 19.3156 18.4069 19.0285V15.7907C17.8967 15.998 15.3764 16.7317 15.3764 14.3711V8.70875H18.4069V5.3114H15.3764L15.3924 1.85024ZM4.61007 9.36269C4.61007 8.74071 5.12046 8.50138 5.96596 8.50138C7.17807 8.50138 8.70925 8.86834 9.92147 9.52228V5.77391C8.59766 5.24759 7.28977 5.04022 5.96596 5.04022C2.72798 5.04022 0.574707 6.73099 0.574707 9.55424C0.574707 13.9563 6.63572 13.2546 6.63572 15.1527C6.63572 15.8863 5.99781 16.1256 5.10454 16.1256C3.78073 16.1256 2.08996 15.5833 0.750109 14.8496V18.6458C2.23351 19.2838 3.73284 19.5548 5.10454 19.5548C8.42215 19.5548 10.703 17.9121 10.703 15.057C10.6871 10.3039 4.61007 11.1491 4.61007 9.36269Z" fill="#635BFF"/>
</svg>
