<svg width="48" height="49" viewBox="0 0 48 49" fill="none" xmlns="http://www.w3.org/2000/svg">
<path d="M36.9665 34.034C34.2328 34.6904 31.379 34.6586 28.6607 33.9414C25.9423 33.2243 23.4442 31.8441 21.3902 29.9246C19.3361 28.0051 17.7901 25.6061 16.8907 22.9425C15.9913 20.2789 15.7665 17.4338 16.2365 14.662C16.165 14.731 16.0895 14.7958 16.0105 14.856C15.4505 15.282 14.7505 15.44 13.3505 15.756L12.0805 16.044C7.16047 17.158 4.70047 17.714 4.11447 19.596C3.53047 21.476 5.20647 23.438 8.56047 27.36L9.42847 28.374C10.3805 29.488 10.8585 30.046 11.0725 30.734C11.2865 31.424 11.2145 32.168 11.0705 33.654L10.9385 35.008C10.4325 40.242 10.1785 42.858 11.7105 44.02C13.2425 45.184 15.5465 44.124 20.1505 42.002L21.3445 41.454C22.6525 40.85 23.3065 40.55 24.0005 40.55C24.6945 40.55 25.3485 40.85 26.6585 41.454L27.8485 42.002C32.4545 44.122 34.7585 45.182 36.2885 44.022C37.8225 42.858 37.5685 40.242 37.0625 35.008L36.9665 34.034Z" fill="#FBB900"/>
<path d="M36.9665 34.034C34.2328 34.6904 31.379 34.6586 28.6607 33.9414C25.9423 33.2243 23.4442 31.8441 21.3902 29.9246C19.3361 28.0051 17.7901 25.6061 16.8907 22.9425C15.9913 20.2789 15.7665 17.4338 16.2365 14.662C16.165 14.731 16.0895 14.7958 16.0105 14.856C15.4505 15.282 14.7505 15.44 13.3505 15.756L12.0805 16.044C7.16047 17.158 4.70047 17.714 4.11447 19.596C3.53047 21.476 5.20647 23.438 8.56047 27.36L9.42847 28.374C10.3805 29.488 10.8585 30.046 11.0725 30.734C11.2865 31.424 11.2145 32.168 11.0705 33.654L10.9385 35.008C10.4325 40.242 10.1785 42.858 11.7105 44.02C13.2425 45.184 15.5465 44.124 20.1505 42.002L21.3445 41.454C22.6525 40.85 23.3065 40.55 24.0005 40.55C24.6945 40.55 25.3485 40.85 26.6585 41.454L27.8485 42.002C32.4545 44.122 34.7585 45.182 36.2885 44.022C37.8225 42.858 37.5685 40.242 37.0625 35.008L36.9665 34.034Z" fill="url(#paint0_linear_203_1942)"/>
<path d="M18.3064 11.316L17.6504 12.492C16.9304 13.784 16.5704 14.43 16.0104 14.856C16.0904 14.796 16.1644 14.732 16.2364 14.662C15.7663 17.434 15.9911 20.2793 16.8906 22.9432C17.7901 25.607 19.3362 28.0061 21.3906 29.9257C23.4449 31.8453 25.9433 33.2253 28.6619 33.9423C31.3806 34.6593 34.2346 34.6908 36.9684 34.034L36.9284 33.654C36.7864 32.168 36.7144 31.424 36.9284 30.734C37.1424 30.046 37.6184 29.488 38.5724 28.374L39.4404 27.36C42.7944 23.44 44.4704 21.478 43.8844 19.596C43.3004 17.714 40.8404 17.156 35.9204 16.044L34.6484 15.756C33.2504 15.44 32.5504 15.282 31.9884 14.856C31.4284 14.43 31.0684 13.784 30.3484 12.492L29.6944 11.316C27.1604 6.772 25.8944 4.5 24.0004 4.5C22.1064 4.5 20.8404 6.772 18.3064 11.316Z" fill="#FBB900"/>
<path d="M18.3064 11.316L17.6504 12.492C16.9304 13.784 16.5704 14.43 16.0104 14.856C16.0904 14.796 16.1644 14.732 16.2364 14.662C15.7663 17.434 15.9911 20.2793 16.8906 22.9432C17.7901 25.607 19.3362 28.0061 21.3906 29.9257C23.4449 31.8453 25.9433 33.2253 28.6619 33.9423C31.3806 34.6593 34.2346 34.6908 36.9684 34.034L36.9284 33.654C36.7864 32.168 36.7144 31.424 36.9284 30.734C37.1424 30.046 37.6184 29.488 38.5724 28.374L39.4404 27.36C42.7944 23.44 44.4704 21.478 43.8844 19.596C43.3004 17.714 40.8404 17.156 35.9204 16.044L34.6484 15.756C33.2504 15.44 32.5504 15.282 31.9884 14.856C31.4284 14.43 31.0684 13.784 30.3484 12.492L29.6944 11.316C27.1604 6.772 25.8944 4.5 24.0004 4.5C22.1064 4.5 20.8404 6.772 18.3064 11.316Z" fill="url(#paint1_linear_203_1942)"/>
<defs>
<linearGradient id="paint0_linear_203_1942" x1="20.7267" y1="14.662" x2="20.7267" y2="44.5002" gradientUnits="userSpaceOnUse">
<stop stop-color="#DE9C4D"/>
<stop offset="0.580615" stop-color="#F7DC82"/>
<stop offset="1" stop-color="#B5602E"/>
</linearGradient>
<linearGradient id="paint1_linear_203_1942" x1="29.9983" y1="4.5" x2="29.9983" y2="34.5044" gradientUnits="userSpaceOnUse">
<stop stop-color="#DE9C4D"/>
<stop offset="0.580615" stop-color="#F7DC82"/>
<stop offset="1" stop-color="#B5602E"/>
</linearGradient>
</defs>
</svg>
